<?xml version="1.0" encoding="iso-8859-1"?>
<!-- Uploaded to: SVG Repo, www.svgrepo.com, Generator: SVG Repo Mixer Tools -->
<!-- <!DOCTYPE svg PUBLIC "-//W3C//DTD SVG 1.1//EN" "http://www.w3.org/Graphics/SVG/1.1/DTD/svg11.dtd"> -->
<svg fill="#000000" height="80px" width="80px" version="1.1" id="Capa_1" xmlns="http://www.w3.org/2000/svg" xmlns:xlink="http://www.w3.org/1999/xlink" 
	 viewBox="0 0 474.353 474.353" xml:space="preserve">
<g>
	<path d="M150.872,160.897c2.341,0,4.7-0.753,6.688-2.307l20.892-16.325l15.809,13.381c3.223,2.724,7.429,3.929,11.534,3.316
		c4.108-0.617,7.771-3.009,10.051-6.563l31.278-48.775l21.34,23.149c3.017,3.271,7.22,4.95,11.516,4.609
		c4.303-0.341,8.184-2.66,10.646-6.365l47.045-70.774l12.144,9.461c1.505,1.174,3.103,1.794,4.618,1.794c0.001,0,0.001,0,0.001,0
		c3.001,0,5.195-2.283,5.729-5.957l7.556-52.063c0.342-2.357-0.111-4.332-1.31-5.719c-1.612-1.863-4.43-2.292-7.399-1.067
		l-48.634,20.063c-2.603,1.073-4.197,2.855-4.491,5.017c-0.294,2.163,0.767,4.306,2.986,6.034l11.593,9.031l-42.582,64.062
		L256.38,81.575c-3.038-3.296-7.268-4.961-11.588-4.591c-4.325,0.379-8.194,2.76-10.615,6.533l-32.179,50.182l-13.081-11.071
		c-5.653-4.786-14.32-4.955-20.158-0.393l-24.592,19.217c-4.732,3.698-5.571,10.533-1.873,15.266
		C144.439,159.462,147.638,160.897,150.872,160.897z"/>
	<path d="M71.422,375.146c18.338,0,33.257-14.922,33.257-33.264c0-18.343-14.919-33.266-33.257-33.266
		c-18.341,0-33.262,14.923-33.262,33.266C38.161,360.224,53.081,375.146,71.422,375.146z"/>
	<path d="M109.113,386.937c-2.419-4.641-7.176-7.522-12.413-7.522c-0.131,0-48.972,0.022-49.068,0.022
		c-5.582,0-9.468,3.045-11.789,7.5L4.416,447.178c-1.728,3.314-2.063,7.102-0.942,10.667c1.121,3.564,3.563,6.479,6.874,8.207
		c1.711,0.892,3.545,1.414,5.451,1.554c0.338,0.024,0.676,0.038,1.013,0.038c5.235,0,9.991-2.884,12.412-7.524l9.082-17.409v24.744
		c0,3.804,3.095,6.898,6.899,6.898h54.369c3.805,0,6.9-3.095,6.9-6.898v-25.076l9.255,17.741c2.419,4.64,7.175,7.522,12.412,7.524
		c0.338,0,0.675-0.014,1.013-0.038c1.907-0.14,3.74-0.662,5.45-1.554c3.313-1.728,5.754-4.642,6.875-8.207
		c1.121-3.565,0.786-7.353-0.941-10.667L109.113,386.937z"/>
	<path d="M203.026,341.882c0,18.342,14.921,33.264,33.262,33.264c18.338,0,33.257-14.922,33.257-33.264
		c0-18.343-14.919-33.266-33.257-33.266C217.947,308.617,203.026,323.539,203.026,341.882z"/>
	<path d="M273.978,386.937c-2.419-4.641-7.176-7.522-12.413-7.522c-0.131,0-48.972,0.022-49.068,0.022
		c-5.541,0-9.468,3.045-11.789,7.5l-31.426,60.241c-1.729,3.314-2.063,7.102-0.942,10.667c1.121,3.564,3.563,6.479,6.874,8.207
		c1.711,0.892,3.545,1.414,5.451,1.554c0.338,0.024,0.676,0.038,1.013,0.038c5.235,0,9.991-2.884,12.412-7.524l9.082-17.409v24.744
		c0,3.804,3.095,6.898,6.899,6.898h54.369c3.805,0,6.9-3.095,6.9-6.898v-25.076l9.255,17.741c2.419,4.64,7.175,7.522,12.412,7.524
		c0.338,0,0.675-0.014,1.013-0.038c1.907-0.14,3.74-0.662,5.45-1.554c3.313-1.728,5.754-4.642,6.875-8.207
		c1.121-3.565,0.786-7.353-0.941-10.667L273.978,386.937z"/>
	<path d="M367.559,341.882c0,18.342,14.921,33.264,33.262,33.264c18.338,0,33.257-14.922,33.257-33.264
		c0-18.343-14.919-33.266-33.257-33.266C382.48,308.617,367.559,323.539,367.559,341.882z"/>
	<path d="M469.937,447.178l-31.426-60.241c-2.419-4.641-7.176-7.522-12.413-7.522c-0.131,0-48.972,0.022-49.068,0.022
		c-5.184,0-9.468,3.045-11.789,7.5l-31.426,60.241c-1.728,3.314-2.063,7.102-0.942,10.667c1.121,3.564,3.563,6.479,6.874,8.207
		c1.711,0.892,3.545,1.414,5.451,1.554c0.338,0.024,0.676,0.038,1.013,0.038c5.235,0,9.991-2.884,12.412-7.524l9.082-17.409v24.744
		c0,3.804,3.095,6.898,6.899,6.898h54.369c3.805,0,6.9-3.095,6.9-6.898v-25.076l9.255,17.741c2.419,4.64,7.175,7.522,12.412,7.524
		c0.338,0,0.675-0.014,1.013-0.038c1.907-0.14,3.74-0.662,5.45-1.554c3.313-1.728,5.754-4.642,6.875-8.207
		C471.999,454.28,471.664,450.492,469.937,447.178z"/>
	<path d="M72.81,281.339c4.104,0,7.432-3.327,7.432-7.432v-25.369h149.669v25.369c0,4.104,3.327,7.432,7.432,7.432
		c4.104,0,7.432-3.327,7.432-7.432v-25.369h149.67v25.369c0,4.104,3.327,7.432,7.432,7.432s7.432-3.327,7.432-7.432V244.41
		c0-5.919-4.815-10.734-10.734-10.734H244.774V201.15l3.361,3.724c1.467,1.625,3.488,2.452,5.518,2.452
		c1.775,0,3.557-0.633,4.978-1.916c3.047-2.75,3.287-7.449,0.536-10.495l-14.239-15.773c-1.934-2.142-4.677-3.37-7.526-3.37
		s-5.593,1.229-7.525,3.37l-14.24,15.773c-2.751,3.046-2.511,7.745,0.536,10.495c3.045,2.75,7.745,2.511,10.495-0.536l3.244-3.593
		v32.395H76.113c-5.919,0-10.734,4.815-10.734,10.734v29.498C65.378,278.012,68.706,281.339,72.81,281.339z"/>
</g>
</svg>